<svg width="56" height="59" viewBox="0 0 56 59" fill="none" xmlns="http://www.w3.org/2000/svg">
<path d="M46.6722 26.25V17.5H40.8389V26.25H32.0889V32.0833H40.8389V40.8333H46.6722V32.0833H55.4222V26.25M23.3389 32.0833V8.75C23.3389 3.90833 19.4305 0 14.5889 0C9.7472 0 5.83887 3.90833 5.83887 8.75V32.0833C-0.606963 36.925 -1.91946 46.0542 2.9222 52.5C7.76387 58.9458 16.893 60.2583 23.3389 55.4167C29.7847 50.575 31.0972 41.4458 26.2555 35C25.4346 33.8874 24.4515 32.9042 23.3389 32.0833ZM14.5889 5.83333C16.193 5.83333 17.5055 7.14583 17.5055 8.75V17.5H11.6722V8.75C11.6722 7.14583 12.9847 5.83333 14.5889 5.83333Z" fill="white"/>
</svg>
