<svg width="25" height="25" viewBox="0 0 25 25" fill="none" xmlns="http://www.w3.org/2000/svg">
<g filter="url(#filter0_di_18_256)">
<path d="M11.735 15.7612H5.70859V13.9069H11.735C12.3272 13.9071 12.9081 14.0694 13.4147 14.3761C13.9212 14.6829 14.3342 15.1224 14.6089 15.6471C14.8835 16.1718 15.0093 16.7616 14.9726 17.3527C14.936 17.9438 14.7383 18.5136 14.401 19.0003C14.0637 19.487 13.5996 19.8722 13.059 20.114C12.5184 20.3559 11.9219 20.4452 11.3342 20.3722C10.7465 20.2993 10.19 20.0669 9.72492 19.7003C9.25985 19.3337 8.90397 18.8467 8.69585 18.2923L10.4324 17.6405C10.5216 17.8782 10.6741 18.0868 10.8734 18.244C11.0727 18.4011 11.3112 18.5008 11.563 18.532C11.8149 18.5633 12.0706 18.5251 12.3022 18.4214C12.5339 18.3178 12.7328 18.1528 12.8774 17.9442C13.022 17.7356 13.1068 17.4914 13.1225 17.2381C13.1382 16.9848 13.0843 16.732 12.9666 16.5071C12.8489 16.2822 12.672 16.0938 12.4549 15.9624C12.2378 15.8309 11.9888 15.7613 11.735 15.7612ZM6.63574 10.1984H19.1522C19.7444 10.1986 20.3252 10.3608 20.8318 10.6676C21.3384 10.9743 21.7514 11.4138 22.026 11.9385C22.3006 12.4632 22.4264 13.053 22.3898 13.6441C22.3532 14.2352 22.1555 14.805 21.8181 15.2917C21.4808 15.7785 21.0167 16.1636 20.4761 16.4055C19.9355 16.6473 19.3391 16.7366 18.7514 16.6636C18.1637 16.5907 17.6071 16.3583 17.1421 15.9917C16.677 15.6251 16.3211 15.1382 16.113 14.5837L17.8495 13.932C17.9387 14.1696 18.0912 14.3783 18.2905 14.5354C18.4898 14.6926 18.7283 14.7922 18.9802 14.8235C19.2321 14.8547 19.4877 14.8165 19.7194 14.7129C19.9511 14.6093 20.15 14.4442 20.2946 14.2356C20.4392 14.027 20.5239 13.7828 20.5396 13.5295C20.5554 13.2762 20.5015 13.0234 20.3838 12.7985C20.2661 12.5736 20.0891 12.3853 19.872 12.2538C19.6549 12.1223 19.406 12.0527 19.1522 12.0526H6.63574C5.89806 12.0526 5.19059 11.7596 4.66897 11.238C4.14735 10.7164 3.85431 10.0089 3.85431 9.27121C3.85431 8.53353 4.14735 7.82606 4.66897 7.30444C5.19059 6.78282 5.89806 6.48978 6.63574 6.48978H14.5165C14.7703 6.48967 15.0192 6.42011 15.2363 6.28864C15.4534 6.15716 15.6304 5.96878 15.7481 5.7439C15.8657 5.51903 15.9196 5.26623 15.9039 5.01292C15.8882 4.7596 15.8034 4.51541 15.6589 4.30681C15.5143 4.09822 15.3154 3.93316 15.0837 3.82954C14.852 3.72592 14.5963 3.68767 14.3445 3.71895C14.0926 3.75023 13.8541 3.84984 13.6548 4.00699C13.4555 4.16414 13.303 4.37283 13.2138 4.61046L11.4773 3.95961C11.7447 3.24831 12.2533 2.65339 12.9143 2.27852C13.5753 1.90365 14.3469 1.77258 15.0946 1.90816C15.8424 2.04374 16.5188 2.43737 17.0061 3.02046C17.4935 3.60356 17.7608 4.33915 17.7615 5.09907C17.7615 5.95969 17.4196 6.78507 16.811 7.39363C16.2025 8.00218 15.3771 8.34407 14.5165 8.34407H6.63574C6.38984 8.34407 6.15402 8.44175 5.98015 8.61562C5.80628 8.78949 5.70859 9.02531 5.70859 9.27121C5.70859 9.5171 5.80628 9.75292 5.98015 9.9268C6.15402 10.1007 6.38984 10.1984 6.63574 10.1984Z" fill="white"/>
</g>
<defs>
<filter id="filter0_di_18_256" x="-1" y="0" width="25.2514" height="26.2515" filterUnits="userSpaceOnUse" color-interpolation-filters="sRGB">
<feFlood flood-opacity="0" result="BackgroundImageFix"/>
<feColorMatrix in="SourceAlpha" type="matrix" values="0 0 0 0 0 0 0 0 0 0 0 0 0 0 0 0 0 0 127 0" result="hardAlpha"/>
<feOffset dx="-2" dy="3"/>
<feGaussianBlur stdDeviation="0.5"/>
<feColorMatrix type="matrix" values="0 0 0 0 0 0 0 0 0 0 0 0 0 0 0 0 0 0 0.1 0"/>
<feBlend mode="normal" in2="BackgroundImageFix" result="effect1_dropShadow_18_256"/>
<feBlend mode="normal" in="SourceGraphic" in2="effect1_dropShadow_18_256" result="shape"/>
<feColorMatrix in="SourceAlpha" type="matrix" values="0 0 0 0 0 0 0 0 0 0 0 0 0 0 0 0 0 0 127 0" result="hardAlpha"/>
<feOffset dx="-1" dy="1"/>
<feGaussianBlur stdDeviation="1"/>
<feComposite in2="hardAlpha" operator="arithmetic" k2="-1" k3="1"/>
<feColorMatrix type="matrix" values="0 0 0 0 1 0 0 0 0 1 0 0 0 0 1 0 0 0 0.25 0"/>
<feBlend mode="normal" in2="shape" result="effect2_innerShadow_18_256"/>
</filter>
</defs>
</svg>
